solid OpenSCAD_Model
  facet normal -1 0 0
    outer loop
      vertex 10 45 2.5
      vertex 10 51 9.5
      vertex 10 51 2.5
    endloop
  endfacet
  facet normal -1 -0 0
    outer loop
      vertex 10 51 9.5
      vertex 10 45 2.5
      vertex 10 45 9.5
    endloop
  endfacet
  facet normal -0 0 1
    outer loop
      vertex 10 51 9.5
      vertex 40 45 9.5
      vertex 40 51 9.5
    endloop
  endfacet
  facet normal 0 0 1
    outer loop
      vertex 40 45 9.5
      vertex 10 51 9.5
      vertex 10 45 9.5
    endloop
  endfacet
  facet normal 1 -0 0
    outer loop
      vertex 40 45 9.5
      vertex 40 51 2.5
      vertex 40 51 9.5
    endloop
  endfacet
  facet normal 1 0 0
    outer loop
      vertex 40 51 2.5
      vertex 40 45 9.5
      vertex 40 45 2.5
    endloop
  endfacet
  facet normal 0 1 -0
    outer loop
      vertex 40 51 2.5
      vertex 10 51 9.5
      vertex 40 51 9.5
    endloop
  endfacet
  facet normal 0 1 0
    outer loop
      vertex 10 51 9.5
      vertex 40 51 2.5
      vertex 10 51 2.5
    endloop
  endfacet
  facet normal 0 0 1
    outer loop
      vertex 40 45 2.5
      vertex 67 52 2.5
      vertex 40 51 2.5
    endloop
  endfacet
  facet normal -0 0 1
    outer loop
      vertex 0 52 2.5
      vertex 40 51 2.5
      vertex 67 52 2.5
    endloop
  endfacet
  facet normal 0 0 1
    outer loop
      vertex 10 51 2.5
      vertex 0 52 2.5
      vertex 10 45 2.5
    endloop
  endfacet
  facet normal 0 0 1
    outer loop
      vertex 40 51 2.5
      vertex 0 52 2.5
      vertex 10 51 2.5
    endloop
  endfacet
  facet normal 0 0 1
    outer loop
      vertex 67 52 2.5
      vertex 40 45 2.5
      vertex 67 0 2.5
    endloop
  endfacet
  facet normal 0 0 1
    outer loop
      vertex 0 0 2.5
      vertex 40 45 2.5
      vertex 10 45 2.5
    endloop
  endfacet
  facet normal 0 0 1
    outer loop
      vertex 0 0 2.5
      vertex 10 45 2.5
      vertex 0 52 2.5
    endloop
  endfacet
  facet normal 0 0 1
    outer loop
      vertex 40 45 2.5
      vertex 0 0 2.5
      vertex 67 0 2.5
    endloop
  endfacet
  facet normal 0 -1 0
    outer loop
      vertex 10 45 2.5
      vertex 40 45 9.5
      vertex 10 45 9.5
    endloop
  endfacet
  facet normal 0 -1 -0
    outer loop
      vertex 40 45 9.5
      vertex 10 45 2.5
      vertex 40 45 2.5
    endloop
  endfacet
  facet normal -1 0 0
    outer loop
      vertex 0 0 0
      vertex 0 52 2.5
      vertex 0 52 0
    endloop
  endfacet
  facet normal -1 -0 0
    outer loop
      vertex 0 52 2.5
      vertex 0 0 0
      vertex 0 0 2.5
    endloop
  endfacet
  facet normal 1 -0 0
    outer loop
      vertex 67 0 2.5
      vertex 67 52 0
      vertex 67 52 2.5
    endloop
  endfacet
  facet normal 1 0 0
    outer loop
      vertex 67 52 0
      vertex 67 0 2.5
      vertex 67 0 0
    endloop
  endfacet
  facet normal 0 0 -1
    outer loop
      vertex 0 0 0
      vertex 67 52 0
      vertex 67 0 0
    endloop
  endfacet
  facet normal -0 0 -1
    outer loop
      vertex 67 52 0
      vertex 0 0 0
      vertex 0 52 0
    endloop
  endfacet
  facet normal 0 -1 0
    outer loop
      vertex 0 0 0
      vertex 67 0 2.5
      vertex 0 0 2.5
    endloop
  endfacet
  facet normal 0 -1 -0
    outer loop
      vertex 67 0 2.5
      vertex 0 0 0
      vertex 67 0 0
    endloop
  endfacet
  facet normal 0 1 -0
    outer loop
      vertex 67 52 0
      vertex 0 52 2.5
      vertex 67 52 2.5
    endloop
  endfacet
  facet normal 0 1 0
    outer loop
      vertex 0 52 2.5
      vertex 67 52 0
      vertex 0 52 0
    endloop
  endfacet
endsolid OpenSCAD_Model
